HIERARCHY
ROOT SpineBase
{
  OFFSET 0.000000 0.000000 0.000000
  CHANNELS 6 Xposition Yposition Zposition Zrotation Xrotation Yrotation
  JOINT SpineMid
  {
    OFFSET 0.000000 24.204177 0.000000
    CHANNELS 3 Zrotation Xrotation Yrotation
    JOINT SpineShoulder
    {
      OFFSET -0.024718 18.014348 -0.682696
      CHANNELS 3 Zrotation Xrotation Yrotation
      JOINT Neck
      {
        OFFSET -0.003031 5.994900 -0.513010
        CHANNELS 3 Zrotation Xrotation Yrotation
        JOINT Head
        {
          OFFSET -4.241304 12.204092 1.445659
          CHANNELS 3 Zrotation Xrotation Yrotation
          End Site
          {
            OFFSET 0 0 0
          }
        }
      }
      JOINT ShoulderLeft
      {
        OFFSET -12.278188 -4.348339 6.539402
        CHANNELS 3 Zrotation Xrotation Yrotation
        JOINT ElbowLeft
        {
          OFFSET 1.312926 -16.193473 -19.676791
          CHANNELS 3 Zrotation Xrotation Yrotation
          JOINT WristLeft
          {
            OFFSET -0.038685 15.593735 8.661993
            CHANNELS 3 Zrotation Xrotation Yrotation
            JOINT HandLeft
            {
              OFFSET 2.202894 4.571714 3.438135
              CHANNELS 3 Zrotation Xrotation Yrotation
              JOINT HandTipLeft
              {
                OFFSET -0.568633 5.052380 2.590571
                CHANNELS 3 Zrotation Xrotation Yrotation
                End Site
                {
                  OFFSET 0 0 0
                }
              }
              JOINT ThumbLeft
              {
                OFFSET -4.067749 -2.261457 2.498323
                CHANNELS 3 Zrotation Xrotation Yrotation
                End Site
                {
                  OFFSET 0 0 0
                }
              }
            }
          }
        }
      }
      JOINT ShoulderRight
      {
        OFFSET 10.315216 -2.972425 -8.204746
        CHANNELS 3 Zrotation Xrotation Yrotation
        JOINT ElbowRight
        {
          OFFSET 8.843248 -17.352515 -2.750029
          CHANNELS 3 Zrotation Xrotation Yrotation
          JOINT WristRight
          {
            OFFSET -23.808538 -1.091059 -5.655160
            CHANNELS 3 Zrotation Xrotation Yrotation
            JOINT HandRight
            {
              OFFSET -6.098062 0.321217 -0.109239
              CHANNELS 3 Zrotation Xrotation Yrotation
              JOINT HandTipRight
              {
                OFFSET -3.778540 0.091775 -1.364163
                CHANNELS 3 Zrotation Xrotation Yrotation
                End Site
                {
                  OFFSET 0 0 0
                }
              }
              JOINT ThumbRight
              {
                OFFSET 0.776626 2.577350 -2.909267
                CHANNELS 3 Zrotation Xrotation Yrotation
                End Site
                {
                  OFFSET 0 0 0
                }
              }
            }
          }
        }
      }
    }
  }
  JOINT HipLeft
  {
    OFFSET -4.088407 0.493680 -1.234595
    CHANNELS 3 Zrotation Xrotation Yrotation
    JOINT KneeLeft
    {
      OFFSET 3.124533 -33.939755 1.055243
      CHANNELS 3 Zrotation Xrotation Yrotation
      JOINT AnkleLeft
      {
        OFFSET 8.385309 -34.516384 5.082623
        CHANNELS 3 Zrotation Xrotation Yrotation
        JOINT FootLeft
        {
          OFFSET 4.594128 -6.408643 -7.450887
          CHANNELS 3 Zrotation Xrotation Yrotation
          End Site
          {
            OFFSET 0 0 0
          }
        }
      }
    }
  }
  JOINT HipRight
  {
    OFFSET 4.097547 1.122687 -4.863584
    CHANNELS 3 Zrotation Xrotation Yrotation
    JOINT KneeRight
    {
      OFFSET 7.288788 -34.240390 -2.656304
      CHANNELS 3 Zrotation Xrotation Yrotation
      JOINT AnkleRight
      {
        OFFSET 2.939368 -35.648366 6.766926
        CHANNELS 3 Zrotation Xrotation Yrotation
        JOINT FootRight
        {
          OFFSET -4.508956 -2.680775 -10.124811
          CHANNELS 3 Zrotation Xrotation Yrotation
          End Site
          {
            OFFSET 0 0 0
          }
        }
      }
    }
  }
}
MOTION
Frames: 6
Frame Time: 0.033333
-0.247007 76.155145 355.700603 0.002179 0.668965 28.461341 -0.320733 -0.587072 -28.462997 -0.107851 0.884635 -0.007955 -5.836495 0.032220 1.006139 0.000000 0.000000 0.000000 -7.662086 -25.551294 7.647778 -7.333569 -47.603900 -15.163283 38.027124 -9.589008 -60.984122 -27.866671 1.386779 12.666663 0.000000 0.000000 0.000000 0.000000 0.000000 0.000000 -26.659307 6.550978 10.634488 -12.124597 3.123896 -7.781929 8.319177 -6.812553 -8.676549 -19.980874 17.709283 -0.572222 0.000000 0.000000 0.000000 0.000000 0.000000 0.000000 -0.320733 -0.587072 -28.462997 -3.834253 -0.958856 -0.835608 7.788167 -4.326576 -7.761042 0.000000 0.000000 0.000000 -0.320733 -0.587072 -28.462997 -0.491363 -0.976222 -0.177730 0.703039 1.418411 -1.373101 0.000000 0.000000 0.000000
-0.242195 76.115370 355.660221 0.017020 0.716684 28.988519 -0.362231 -0.618642 -28.990581 -0.075090 0.889646 -0.005397 -5.978491 0.111847 1.049554 0.000000 0.000000 0.000000 -7.392809 -27.169115 7.066427 -3.485878 -44.749271 -15.270770 35.858977 -11.692336 -48.406610 -29.401017 5.706670 8.002397 0.000000 0.000000 0.000000 0.000000 0.000000 0.000000 -26.497510 6.578527 10.596227 -12.102523 3.803163 -9.483459 4.253311 -6.495272 -8.859288 -17.520311 17.414328 1.049523 0.000000 0.000000 0.000000 0.000000 0.000000 0.000000 -0.362231 -0.618642 -28.990581 -2.991159 -1.016330 -0.717607 6.094065 -3.135280 -6.027597 0.000000 0.000000 0.000000 -0.362231 -0.618642 -28.990581 -0.549509 -1.098605 -0.199882 0.666345 1.443784 -0.839809 0.000000 0.000000 0.000000
-0.241039 76.037750 355.632926 0.021704 0.747792 29.782501 -0.390289 -0.638236 -29.784817 -0.061217 0.898174 -0.004308 -6.046755 0.212829 1.098228 0.000000 0.000000 0.000000 -7.042956 -29.696580 6.277067 0.600008 -41.324020 -15.879020 33.704993 -10.277887 -33.549897 -26.309082 10.572845 -2.193040 0.000000 0.000000 0.000000 0.000000 0.000000 0.000000 -26.378901 6.914128 10.831393 -12.103461 4.317647 -11.657048 -1.799341 -6.118069 -9.293387 -16.538198 17.408487 4.462320 0.000000 0.000000 0.000000 0.000000 0.000000 0.000000 -0.390289 -0.638236 -29.784817 -1.755744 -1.239157 -0.579825 3.745168 -0.323846 -2.943116 0.000000 0.000000 0.000000 -0.390289 -0.638236 -29.784817 -0.614471 -1.052631 -0.208812 0.610735 1.054803 0.197545 0.000000 0.000000 0.000000
-0.236588 75.962030 355.593711 0.019873 0.800468 30.364253 -0.149593 0.098832 -30.370437 0.081115 0.099702 -0.000659 -6.032221 0.303139 1.140350 0.000000 0.000000 0.000000 -7.417167 -33.178354 6.381525 3.390819 -37.180295 -18.223076 29.824148 -3.484521 -18.876233 -22.304819 7.724664 -8.912056 0.000000 0.000000 0.000000 0.000000 0.000000 0.000000 -26.001145 7.128668 10.901095 -12.131235 5.069513 -14.092493 -8.743065 -6.225342 -8.950007 -13.312717 16.952517 7.817711 0.000000 0.000000 0.000000 0.000000 0.000000 0.000000 -0.421800 -0.680615 -30.366898 -0.506821 -1.133511 -0.354889 0.391685 2.871722 1.683866 0.000000 0.000000 0.000000 -0.892702 -1.405421 -30.556298 -0.446044 0.160300 0.035008 0.483488 0.702917 0.146892 0.000000 0.000000 0.000000
-0.237660 75.956932 355.536026 0.003216 0.884338 30.372904 -0.176511 0.070855 -30.380105 0.061859 0.081066 -0.003678 -5.960695 0.329129 1.160330 0.000000 0.000000 0.000000 -7.450377 -35.033913 6.239709 -0.287105 -37.718013 -15.411869 29.872326 -1.193903 -16.279332 -27.823595 5.244922 -2.773441 0.000000 0.000000 0.000000 0.000000 0.000000 0.000000 -26.432498 7.106193 11.042365 -11.604179 3.923114 -11.913482 -6.176744 -5.692128 -9.448638 -13.035382 15.843150 8.163917 0.000000 0.000000 0.000000 0.000000 0.000000 0.000000 -0.449946 -0.761331 -30.375919 0.763425 -0.867368 -0.092271 -3.701562 5.187725 6.592623 0.000000 0.000000 0.000000 -0.812634 -1.612141 -30.587910 -0.120735 0.916944 0.205446 -0.000000 0.000000 0.000000 0.000000 0.000000 0.000000
-0.242535 75.996594 355.470279 -0.022299 0.963796 30.117385 -0.196986 0.039127 -30.125557 0.042015 0.048321 -0.006888 -5.881074 0.458298 1.216479 0.000000 0.000000 0.000000 -7.127320 -36.674997 5.603108 -2.474011 -38.916625 -12.815991 30.913057 2.652358 -21.330766 -28.649283 4.988202 -0.181515 0.000000 0.000000 0.000000 0.000000 0.000000 0.000000 -26.607291 7.219069 11.211719 -11.053804 3.251976 -11.253671 -5.596512 -5.408553 -9.758827 -13.291528 13.350982 12.458599 0.000000 0.000000 0.000000 0.000000 0.000000 0.000000 -0.464351 -0.844863 -30.120621 1.611302 -0.655178 0.086958 -3.819752 4.055990 4.924030 0.000000 0.000000 0.000000 -0.638842 -1.783121 -30.340845 -0.323395 0.897877 0.218756 -0.000000 0.000000 0.000000 0.000000 0.000000 0.000000
